# xmcd
#
# Track frame offsets: 
#        150
#        19424
#        40533
#        65243
#        78289
#        95324
#        120575
#        141019
#        157184
#        173054
#        192995
#        222740
#
# Disc length: 3240 seconds
#
# Revision: 0
# Processed by: cddbd v1.5.2PL0 Copyright (c) Steve Scherf et al.
# Submitted via: ExactAudioCopyFreeDBPlugin 1.0
#
DISCID=a90ca60c
DTITLE=Night Train - The silence spoke
DYEAR=1900
DGENRE=
TTITLE0=Wanna go for a ride
TTITLE1=Laverda, sweet Laverda
TTITLE2=Shadow of the night
TTITLE3=Howling for my baby
TTITLE4=I said yeh!
TTITLE5=Death angel
TTITLE6=The return
TTITLE7=So sorry honey
TTITLE8=You make me blue
TTITLE9=Broken heroes
TTITLE10=Shadow of the night (reprise)
TTITLE11=Bouncers song (bonus)
EXTD=
EXTT0=
EXTT1=
EXTT2=
EXTT3=
EXTT4=
EXTT5=
EXTT6=
EXTT7=
EXTT8=
EXTT9=
EXTT10=
EXTT11=
PLAYORDER=
